# xmcd
#
# Track frame offsets: 
#        150
#        26345
#        44199
#        61075
#        83702
#        108977
#        124151
#        139944
#        160511
#        173847
#        195478
#        211098
#        239562
#        253501
#        272237
#        277994
#        294968
#
# Disc length: 4354 seconds
#
# Revision: 1
# Processed by: cddbd v1.5.2PL0 Copyright (c) Steve Scherf et al.
# Submitted via: ExactAudioCopy v0.99pb5
#
DISCID=ee110011
DTITLE=Atomic Forest - Obsession
DYEAR=2011
DGENRE=Psychedelic Rock
TTITLE0=Obsession '77 (Fast)
TTITLE1=Locomotive Breath
TTITLE2=Mary Long
TTITLE3=Sunshine Day
TTITLE4=I Saw Her Standing There - Rock 'N Roll Music Medley
TTITLE5=Obsession '77 (Slow)
TTITLE6=Butterfly Version 1
TTITLE7=(Theme From) The Godfather
TTITLE8=Windmills Of Your Mind
TTITLE9=(Theme From) The Fox
TTITLE10=Butterfly Version 2
TTITLE11=Booboo Lullaby
TTITLE12=Man, You're Not Number One
TTITLE13=Travel On
TTITLE14=Jeff Beck Excerpt
TTITLE15=Gethsemane (I Only Want To Say)
TTITLE16=Foxy Lady
EXTD=
EXTT0=
EXTT1=
EXTT2=
EXTT3=
EXTT4=
EXTT5=
EXTT6=
EXTT7=
EXTT8=
EXTT9=
EXTT10=
EXTT11=
EXTT12=
EXTT13=
EXTT14=
EXTT15=
EXTT16=
PLAYORDER=
